#!OML:ASF F:\VICON\USERDATA\INSTALL\rory3\rory3.ASF
:FULLY-SPECIFIED
:DEGREES
313
root -12.2175 17.8006 7.41799 -74.7416 -83.6917 73.5992
lowerback 9.23796 -0.555884 -6.35773
upperback 0.840753 -1.4222 0.0726318
thorax -4.15335 -0.608049 3.83507
lowerneck -20.6265 -6.78924 -12.6688
upperneck 26.9415 -8.64517 9.20381
head 13.5375 -4.03407 4.17404
rclavicle 2.28602e-015 -1.59028e-015
rhumerus -38.0242 -19.887 -76.6111
rradius 24.3716
rwrist 8.46352
rhand -16.5057 7.89181
rfingers 7.12502
rthumb 9.71224 -21.8643
lclavicle 2.28602e-015 -1.59028e-015
lhumerus -25.2026 -1.58353 84.9615
lradius 39.2264
lwrist -3.53702
lhand -20.2779 24.1261
lfingers 7.12502
lthumb 6.07152 54.0191
rfemur -23.1978 -3.35548 18.4039
rtibia 24.4299
rfoot 0.928597 -0.0738886
rtoes 16.5648
lfemur 24.5493 -1.78016 -28.3862
ltibia -9.54166e-015
lfoot 1.6958 -4.38788
ltoes -28.9569
314
root -12.3777 17.8189 7.40576 -73.7718 -84.1352 72.6438
lowerback 9.19489 -0.598571 -5.91014
upperback 0.679141 -1.42393 0.215389
thorax -4.30507 -0.604884 3.73386
lowerneck -20.4925 -6.67108 -12.6189
upperneck 27.1135 -8.47631 9.02871
head 13.5452 -3.98726 4.13359
rclavicle 7.25564e-015 -1.86858e-014
rhumerus -38.1121 -19.6546 -76.5706
rradius 24.1832
rwrist 8.30113
rhand -16.5736 7.67809
rfingers 7.12502
rthumb 9.6468 -22.081
lclavicle 7.25564e-015 -1.86858e-014
lhumerus -25.7987 -1.04618 84.9417
lradius 39.0099
lwrist -3.6935
lhand -20.3986 23.7999
lfingers 7.12502
lthumb 5.95498 53.6962
rfemur -22.6887 -2.9687 18.9387
rtibia 24.4255
rfoot 0.704784 -1.12501
rtoes 13.9018
lfemur 24.9628 -1.94945 -27.8581
ltibia 2.8625e-014
lfoot 2.97137 -4.81096
ltoes -30.1959
315
root -12.5402 17.8387 7.40334 -74.2787 -84.6819 72.9916
lowerback 9.22452 -0.536576 -5.20188
upperback 0.626596 -1.2674 0.263505
thorax -4.40675 -0.535394 3.36701
lowerneck -20.4023 -6.65925 -12.5609
upperneck 27.2616 -8.50285 8.98983
head 13.5866 -4.00532 4.10776
rclavicle 1.63997e-015 3.97569e-016
rhumerus -38.169 -19.9039 -76.4399
rradius 23.9315
rwrist 8.30567
rhand -16.731 7.59491
rfingers 7.12502
rthumb 9.49491 -22.1712
lclavicle 1.63997e-015 3.97569e-016
lhumerus -26.232 -0.827989 84.9255
lradius 38.6006
lwrist -3.64089
lhand -20.3516 24.4774
lfingers 7.12502
lthumb 6.00038 54.3724
rfemur -21.8734 -2.80513 19.5449
rtibia 24.3157
rfoot 0.5916 -0.763946
rtoes 15.2982
lfemur 25.5533 -1.9323 -27.2894
ltibia -1.17681e-013
lfoot 4.52381 -5.25809
ltoes -30.839
316
root -12.6979 17.8647 7.40052 -74.1713 -85.2578 72.7832
lowerback 9.23851 -0.495613 -4.5359
upperback 0.586875 -1.1374 0.393683
thorax -4.47799 -0.479466 3.11214
lowerneck -20.4459 -6.65887 -12.5841
upperneck 27.4091 -8.49412 8.95156
head 13.6559 -4.01093 4.1009
rclavicle -1.58531e-014 -5.1684e-015
rhumerus -38.0252 -19.5593 -76.4363
rradius 23.7141
rwrist 7.62968
rhand -16.8929 7.51995
rfingers 7.12502
rthumb 9.33869 -22.2532
lclavicle -1.58531e-014 -5.1684e-015
lhumerus -26.6148 -0.527392 85.0305
lradius 38.1668
lwrist -3.15845
lhand -20.6246 24.8845
lfingers 7.12502
lthumb 5.73679 54.7869
rfemur -21.0658 -2.91218 20.2431
rtibia 24.1343
rfoot 0.338326 0.170097
rtoes 17.2564
lfemur 22.4263 -1.95978 -26.6224
ltibia 7.13282
lfoot 3.09045 -4.86472
ltoes -28.8154
317
root -12.8548 17.8929 7.39326 -75.5038 -85.6309 74.0448
lowerback 9.19144 -0.437106 -4.15552
upperback 0.576475 -1.01241 0.492925
thorax -4.4776 -0.423744 2.98475
lowerneck -20.47 -6.62142 -12.599
upperneck 27.4358 -8.423 8.92369
head 13.6617 -3.98487 4.10635
rclavicle 1.68967e-015 7.15625e-015
rhumerus -37.91 -19.5128 -76.2694
rradius 23.5854
rwrist 7.26175
rhand -16.7224 7.40449
rfingers 7.12502
rthumb 9.50319 -22.3612
lclavicle 1.68967e-015 7.15625e-015
lhumerus -26.9451 0.112996 85.1098
lradius 37.6983
lwrist -2.95844
lhand -20.938 25.2111
lfingers 7.12502
lthumb 5.43417 55.1215
rfemur -20.2962 -2.90893 20.6771
rtibia 23.9615
rfoot -0.154763 0.453655
rtoes 16.9845
lfemur 20.5461 -1.92417 -26.2386
ltibia 11.5709
lfoot 3.26258 -4.6582
ltoes -26.8844
318
root -13.0097 17.9184 7.388 -77.4212 -85.9405 75.9242
lowerback 9.14026 -0.370673 -3.83115
upperback 0.532606 -0.882805 0.598229
thorax -4.50822 -0.363196 2.89496
lowerneck -20.5076 -6.58092 -12.6083
upperneck 27.5855 -8.33647 8.81439
head 13.7156 -3.9646 4.08348
rclavicle 4.24902e-015 -5.56597e-015
rhumerus -38.3152 -21.4812 -75.1325
rradius 23.6506
rwrist 9.25531
rhand -16.5566 7.52753
rfingers 7.12502
rthumb 9.66312 -22.2308
lclavicle 4.24902e-015 -5.56597e-015
lhumerus -27.3603 0.930129 85.0816
lradius 37.1533
lwrist -3.35287
lhand -20.7193 24.9017
lfingers 7.12502
lthumb 5.64533 54.8065
rfemur -19.585 -2.90914 20.9883
rtibia 23.8128
rfoot -0.763947 0.127945
rtoes 15.9432
lfemur 19.0145 -1.75591 -25.8821
ltibia 15.0895
lfoot 4.08161 -4.8712
ltoes -25.6774
319
root -13.1579 17.9411 7.38512 -78.8499 -86.1584 77.3458
lowerback 9.13656 -0.347255 -3.57195
upperback 0.463438 -0.823047 0.62929
thorax -4.58601 -0.335377 2.77419
lowerneck -20.5918 -6.53509 -12.4173
upperneck 27.7357 -8.29526 8.66543
head 13.7727 -3.94689 4.00084
rclavicle 1.00386e-014 -1.98785e-015
rhumerus -38.9918 -24.5328 -73.443
rradius 23.6746
rwrist 12.6602
rhand -16.3995 7.96814
rfingers 7.12502
rthumb 9.81472 -21.7831
lclavicle 1.00386e-014 -1.98785e-015
lhumerus -27.8372 1.8469 84.8326
lradius 36.5589
lwrist -4.10095
lhand -20.0634 24.408
lfingers 7.12502
lthumb 6.27862 54.295
rfemur -18.9855 -3.41049 21.2547
rtibia 23.7343
rfoot -1.3973 0.4473
rtoes 14.9897
lfemur 17.6545 -1.76771 -25.6504
ltibia 18.083
lfoot 5.46676 -5.04054
ltoes -24.0683
320
root -13.3045 17.9557 7.37877 -80.2485 -86.3483 78.7184
lowerback 9.10991 -0.318164 -3.37869
upperback 0.437841 -0.762795 0.637094
thorax -4.60447 -0.308573 2.66543
lowerneck -20.7319 -6.44439 -12.3236
upperneck 27.8475 -8.19973 8.69917
head 13.8333 -3.88962 4.01867
rclavicle 5.8393e-015 -3.18055e-015
rhumerus -39.2221 -26.3154 -72.4418
rradius 23.3056
rwrist 14.5627
rhand -16.4303 8.28254
rfingers 7.12502
rthumb 9.78501 -21.4701
lclavicle 5.8393e-015 -3.18055e-015
lhumerus -28.3031 2.4975 84.7157
lradius 36.1763
lwrist -4.15221
lhand -20.113 25.1619
lfingers 7.12502
lthumb 6.23076 55.0503
rfemur -18.3884 -3.90163 21.4963
rtibia 23.6964
rfoot -1.99036 1.18186
rtoes 14.7269
lfemur 16.4083 -1.77205 -25.4241
ltibia 20.7881
lfoot 7.25563 -5.1541
ltoes -21.7806
321
root -13.4545 17.9677 7.368 -83.4221 -86.4284 81.7662
lowerback 9.1077 -0.184478 -3.38294
upperback 0.473501 -0.5828 0.690109
thorax -4.57808 -0.220216 2.69994
lowerneck -20.8827 -6.41357 -12.4784
upperneck 27.9662 -8.12876 8.82069
head 13.9214 -3.85725 4.11038
rclavicle -6.70898e-015 -2.78299e-015
rhumerus -38.8943 -25.5187 -72.8437
rradius 23.2212
rwrist 13.2794
rhand -16.6762 8.14078
rfingers 7.12502
rthumb 9.54776 -21.6229
lclavicle -6.70898e-015 -2.78299e-015
lhumerus -28.7292 2.75205 84.8976
lradius 35.893
lwrist -3.74257
lhand -20.53 25.902
lfingers 7.12502
lthumb 5.82817 55.8018
rfemur -17.6747 -3.97006 21.557
rtibia 23.6635
rfoot -2.45547 1.72871
rtoes 14.8186
lfemur 15.2943 -1.55143 -25.2512
ltibia 23.3101
lfoot 9.37363 -5.5347
ltoes -19.3249
322
root -13.6078 17.9839 7.35631 -87.2353 -86.4954 85.4535
lowerback 9.05265 -0.0244726 -3.4108
upperback 0.544165 -0.367542 0.76022
thorax -4.48814 -0.115708 2.7604
lowerneck -20.9374 -6.53365 -12.4986
upperneck 27.8898 -8.27173 8.80016
head 13.9205 -3.91906 4.07425
rclavicle -8.94531e-016 -1.39149e-014
rhumerus -38.47 -23.9759 -73.5496
rradius 23.5074
rwrist 11.3053
rhand -16.5351 7.84024
rfingers 7.12502
rthumb 9.68396 -21.9171
lclavicle -8.94531e-016 -1.39149e-014
lhumerus -29.0882 2.86836 85.0724
lradius 35.5331
lwrist -3.37298
lhand -20.332 26.0278
lfingers 7.12502
lthumb 6.01925 55.9223
rfemur -16.928 -3.92736 21.585
rtibia 23.6073
rfoot -2.92839 2.03256
rtoes 15.0263
lfemur 14.2066 -1.30689 -25.0491
ltibia 25.6641
lfoot 11.766 -6.01885
ltoes -15.832
323
root -13.7574 17.9996 7.3469 -91.0433 -86.7926 89.1045
lowerback 9.08552 0.0662939 -3.11597
upperback 0.59797 -0.215506 0.818306
thorax -4.46203 -0.047552 2.63524
lowerneck -20.9262 -6.5572 -12.4994
upperneck 27.6699 -8.3334 8.96153
head 13.8415 -3.91989 4.12297
rclavicle 5.2181e-016 5.1684e-015
rhumerus -38.7166 -25.9013 -72.3718
rradius 23.4624
rwrist 13.5211
rhand -15.7369 7.94319
rfingers 7.12502
rthumb 10.454 -21.7769
lclavicle 5.2181e-016 5.1684e-015
lhumerus -29.3866 3.53848 85.0102
lradius 34.9537
lwrist -3.81157
lhand -19.7972 25.85
lfingers 7.12502
lthumb 6.53563 55.7292
rfemur -16.1653 -4.04655 21.8738
rtibia 23.5385
rfoot -3.45781 2.39674
rtoes 16.4187
lfemur 13.1896 -1.19477 -24.5971
ltibia 27.8541
lfoot 14.2974 -6.38766
ltoes -11.505
324
root -13.9063 18.011 7.3377 -95.3024 -87.0986 93.3055
lowerback 8.9787 0.114646 -2.74486
upperback 0.649647 -0.111068 0.805179
thorax -4.35583 -0.00593021 2.39783
lowerneck -20.927 -6.49258 -12.3699
upperneck 27.4435 -8.30689 9.11452
head 13.7426 -3.87001 4.16307
rclavicle -4.42296e-015 -6.36111e-015
rhumerus -38.648 -26.0934 -72.5431
rradius 23.6545
rwrist 13.7556
rhand -15.8854 7.71629
rfingers 7.12502
rthumb 10.3107 -22.011
lclavicle -4.42296e-015 -6.36111e-015
lhumerus -29.6182 4.46972 84.8549
lradius 34.3066
lwrist -4.65355
lhand -19.4739 25.5074
lfingers 7.12502
lthumb 6.84769 55.3766
rfemur -15.502 -4.3019 22.2451
rtibia 23.4219
rfoot -3.9791 2.87257
rtoes 16.9366
lfemur 12.0593 -1.17693 -24.1585
ltibia 29.9644
lfoot 16.7804 -6.94077
ltoes -8.38762
